<svg xmlns="http://www.w3.org/2000/svg" xmlns:xlink="http://www.w3.org/1999/xlink" version="1.1" width="256" height="256" viewBox="0 0 256 256" xml:space="preserve">

<defs>
</defs>
<g style="stroke: none; stroke-width: 0; stroke-dasharray: none; stroke-linecap: butt; stroke-linejoin: miter; stroke-miterlimit: 10; fill: none; fill-rule: nonzero; opacity: 1;" transform="translate(1.4065934065934016 1.4065934065934016) scale(2.81 2.81)" >
	<path d="M 90 45.742 c 0 -0.065 -0.011 -0.128 -0.017 -0.193 c -0.006 -0.065 -0.007 -0.131 -0.02 -0.196 c -0.014 -0.073 -0.04 -0.142 -0.062 -0.213 c -0.017 -0.054 -0.028 -0.109 -0.049 -0.162 c -0.047 -0.116 -0.106 -0.227 -0.174 -0.332 c -0.003 -0.005 -0.005 -0.011 -0.009 -0.017 c -0.001 -0.002 -0.003 -0.003 -0.004 -0.005 c -0.072 -0.108 -0.154 -0.208 -0.245 -0.3 c -0.038 -0.038 -0.081 -0.068 -0.122 -0.102 c -0.059 -0.05 -0.115 -0.103 -0.18 -0.147 c -0.053 -0.036 -0.11 -0.061 -0.166 -0.091 c -0.059 -0.032 -0.115 -0.068 -0.177 -0.094 c -0.115 -0.048 -0.235 -0.085 -0.356 -0.111 c -0.006 -0.001 -0.012 -0.004 -0.018 -0.006 l -0.001 0 c 0 0 0 0 0 0 l -9.8 -2.001 c -1.088 -0.225 -2.14 0.477 -2.36 1.56 c -0.221 1.082 0.478 2.139 1.56 2.359 l 5.07 1.035 L 51.86 67.22 l -16.631 -6.31 c -0.602 -0.228 -1.276 -0.153 -1.812 0.201 L 0.898 82.602 c -0.922 0.609 -1.175 1.851 -0.566 2.772 c 0.385 0.582 1.021 0.897 1.67 0.897 c 0.378 0 0.761 -0.107 1.101 -0.331 l 31.664 -20.927 l 16.632 6.31 c 0.6 0.228 1.275 0.153 1.811 -0.201 l 31.865 -21.059 l -1.035 5.069 c -0.221 1.083 0.477 2.139 1.56 2.36 c 0.136 0.027 0.27 0.04 0.402 0.04 c 0.931 0 1.765 -0.652 1.958 -1.6 l 2.001 -9.801 c 0.004 -0.021 0.003 -0.042 0.006 -0.063 C 89.985 45.961 89.999 45.852 90 45.742 z" style="stroke: none; stroke-width: 1; stroke-dasharray: none; stroke-linecap: butt; stroke-linejoin: miter; stroke-miterlimit: 10; fill: rgb(255,255,255); fill-rule: nonzero; opacity: 1;" transform=" matrix(1 0 0 1 0 0) " stroke-linecap="round" />
	<path d="M 23.287 57.536 c -0.537 0 -1.071 -0.215 -1.465 -0.639 c -5.454 -5.868 -8.458 -13.515 -8.458 -21.532 C 13.364 17.921 27.556 3.729 45 3.729 s 31.637 14.192 31.637 31.637 c 0 1.104 -0.896 2 -2 2 s -2 -0.896 -2 -2 C 72.637 20.127 60.24 7.729 45 7.729 c -15.239 0 -27.636 12.398 -27.636 27.637 c 0 7.003 2.624 13.683 7.388 18.809 c 0.752 0.809 0.706 2.074 -0.104 2.826 C 24.263 57.359 23.775 57.536 23.287 57.536 z" style="stroke: none; stroke-width: 1; stroke-dasharray: none; stroke-linecap: butt; stroke-linejoin: miter; stroke-miterlimit: 10; fill: rgb(255,255,255); fill-rule: nonzero; opacity: 1;" transform=" matrix(1 0 0 1 0 0) " stroke-linecap="round" />
	<path d="M 49.095 33.365 h -8.189 c -1.173 0 -2.128 -0.955 -2.128 -2.128 v -6.354 c 0 -1.173 0.955 -2.128 2.128 -2.128 h 8.189 c 1.174 0 2.128 0.955 2.128 2.128 c 0 1.104 0.896 2 2 2 c 1.104 0 2 -0.896 2 -2 c 0 -3.379 -2.749 -6.128 -6.128 -6.128 H 47 v -3.113 c 0 -1.104 -0.896 -2 -2 -2 c -1.104 0 -2 0.896 -2 2 v 3.113 h -2.095 c -3.379 0 -6.128 2.749 -6.128 6.128 v 6.354 c 0 3.379 2.749 6.128 6.128 6.128 h 8.189 c 1.174 0 2.128 0.955 2.128 2.128 v 6.354 c 0 1.174 -0.954 2.128 -2.128 2.128 h -8.189 c -1.173 0 -2.128 -0.954 -2.128 -2.128 c 0 -1.104 -0.896 -2 -2 -2 c -1.104 0 -2 0.896 -2 2 c 0 3.379 2.749 6.128 6.128 6.128 H 43 v 3.112 c 0 1.104 0.896 2 2 2 c 1.104 0 2 -0.896 2 -2 v -3.112 h 2.095 c 3.379 0 6.128 -2.749 6.128 -6.128 v -6.354 C 55.223 36.114 52.474 33.365 49.095 33.365 z" style="stroke: none; stroke-width: 1; stroke-dasharray: none; stroke-linecap: butt; stroke-linejoin: miter; stroke-miterlimit: 10; fill: rgb(255,255,255); fill-rule: nonzero; opacity: 1;" transform=" matrix(1 0 0 1 0 0) " stroke-linecap="round" />
</g>
</svg>