<svg xmlns="http://www.w3.org/2000/svg" xmlns:xlink="http://www.w3.org/1999/xlink" version="1.1" width="256" height="256" viewBox="0 0 256 256" xml:space="preserve">

<defs>
</defs>
<g style="stroke: none; stroke-width: 0; stroke-dasharray: none; stroke-linecap: butt; stroke-linejoin: miter; stroke-miterlimit: 10; fill: none; fill-rule: nonzero; opacity: 1;" transform="translate(1.4065934065934016 1.4065934065934016) scale(2.81 2.81)" >
	<path d="M 89.768 66.454 c -0.775 -2.538 -3.332 -4.099 -5.937 -3.637 c -3.978 0.708 -8.365 1.862 -13.01 3.084 c -2.416 0.635 -4.898 1.284 -7.36 1.876 c -0.886 -4.06 -4.431 -7.098 -8.679 -7.241 l -1.914 -0.064 c -2.956 0 -6.166 -1.138 -9.269 -2.238 c -3.084 -1.093 -6.273 -2.224 -9.232 -2.224 c -4.427 0 -9.764 0.709 -15.785 5.971 c -0.493 0.431 -1.112 0.666 -1.709 0.666 c -0.005 0 -0.01 0 -0.015 0 l -1.33 -0.06 V 59.15 c 0 -0.553 -0.448 -1 -1 -1 H 1 c -0.552 0 -1 0.447 -1 1 V 86.1 c 0 0.553 0.448 1 1 1 h 13.527 c 0.552 0 1 -0.447 1 -1 v -3.94 h 4.814 c 1.61 0 3.225 0.178 4.798 0.528 l 14.401 3.211 c 1.29 0.288 2.61 0.434 3.931 0.434 c 0.088 0 0.176 -0.001 0.264 -0.002 l 7.97 -0.115 c 2.377 -0.035 4.688 -0.529 6.866 -1.465 l 28.247 -11.93 C 89.287 71.759 90.555 69.022 89.768 66.454 z M 13.528 85.1 H 2 V 60.15 h 11.527 V 85.1 z M 86.035 70.981 l -28.247 11.93 c -1.942 0.834 -3.999 1.273 -6.112 1.305 l -7.97 0.115 c -1.253 0.015 -2.507 -0.111 -3.729 -0.383 l -14.401 -3.211 c -1.716 -0.383 -3.477 -0.577 -5.233 -0.577 h -4.814 V 64.588 l 1.277 0.057 c 1.116 0.01 2.227 -0.403 3.093 -1.159 c 5.524 -4.826 10.415 -5.477 14.47 -5.477 c 2.615 0 5.504 1.024 8.563 2.109 c 3.263 1.156 6.635 2.353 9.901 2.352 c 0.001 0 0.002 0 0.002 0 l 1.88 0.063 c 3.336 0.113 6.118 2.505 6.802 5.698 c -8.467 1.918 -16.393 2.853 -20.052 -0.504 c -0.407 -0.373 -1.04 -0.346 -1.413 0.062 c -0.374 0.407 -0.346 1.039 0.061 1.413 c 5.798 5.317 18.721 1.92 31.218 -1.368 c 4.603 -1.211 8.952 -2.354 12.85 -3.049 c 1.618 -0.287 3.195 0.68 3.676 2.253 C 88.343 68.631 87.558 70.326 86.035 70.981 z" style="stroke: none; stroke-width: 1; stroke-dasharray: none; stroke-linecap: butt; stroke-linejoin: miter; stroke-miterlimit: 10; fill: rgb(255,255,255); fill-rule: nonzero; opacity: 1;" transform=" matrix(1 0 0 1 0 0) " stroke-linecap="round" />
	<path d="M 68.339 63.08 c -0.553 0 -1 -0.447 -1 -1 v -8.322 c 0 -0.346 0.179 -0.667 0.473 -0.85 c 3.264 -2.026 5.622 -5.162 6.64 -8.829 c 0.12 -0.433 0.515 -0.732 0.964 -0.732 h 5.242 c 0.982 0 1.781 -0.799 1.781 -1.781 v -5.056 c 0 -0.982 -0.799 -1.781 -1.781 -1.781 h -5.589 c -0.423 0 -0.8 -0.266 -0.941 -0.664 c -1.033 -2.895 -2.903 -5.385 -5.409 -7.198 c -0.26 -0.188 -0.413 -0.489 -0.413 -0.81 v -8.062 c -3.054 0.294 -4.782 2.002 -5.275 5.195 c -0.084 0.546 -0.594 0.917 -1.141 0.836 c -0.546 -0.084 -0.92 -0.595 -0.836 -1.141 c 0.7 -4.538 3.554 -6.936 8.252 -6.936 c 0.553 0 1 0.448 1 1 v 8.606 c 2.437 1.877 4.308 4.338 5.453 7.174 h 4.899 c 2.085 0 3.781 1.696 3.781 3.781 v 5.056 c 0 2.085 -1.696 3.781 -3.781 3.781 h -4.5 c -1.194 3.661 -3.586 6.804 -6.818 8.957 v 7.776 C 69.339 62.633 68.891 63.08 68.339 63.08 z" style="stroke: none; stroke-width: 1; stroke-dasharray: none; stroke-linecap: butt; stroke-linejoin: miter; stroke-miterlimit: 10; fill: rgb(255,255,255); fill-rule: nonzero; opacity: 1;" transform=" matrix(1 0 0 1 0 0) " stroke-linecap="round" />
	<path d="M 56.692 58.15 c -0.553 0 -1 -0.447 -1 -1 v -0.963 h -6.554 c -0.553 0 -1 -0.447 -1 -1 c 0 -0.553 0.447 -1 1 -1 h 7.554 c 0.553 0 1 0.447 1 1 v 1.963 C 57.692 57.703 57.245 58.15 56.692 58.15 z" style="stroke: none; stroke-width: 1; stroke-dasharray: none; stroke-linecap: butt; stroke-linejoin: miter; stroke-miterlimit: 10; fill: rgb(255,255,255); fill-rule: nonzero; opacity: 1;" transform=" matrix(1 0 0 1 0 0) " stroke-linecap="round" />
	<path d="M 35.146 23.635 c -0.191 -0.518 -0.766 -0.783 -1.285 -0.592 c -5.187 1.913 -9.049 6.213 -10.547 11.369 c -3.706 -0.46 -5.643 -2.108 -6.041 -5.186 c -0.071 -0.548 -0.577 -0.937 -1.12 -0.863 c -0.548 0.071 -0.934 0.572 -0.863 1.12 c 0.356 2.748 1.982 6.112 7.572 6.892 c -0.152 0.914 -0.235 1.846 -0.235 2.791 v 0.842 c 0 4.826 2.049 9.458 5.622 12.708 c 0.191 0.175 0.433 0.261 0.672 0.261 c 0.272 0 0.543 -0.11 0.74 -0.327 c 0.372 -0.408 0.342 -1.041 -0.067 -1.412 c -3.157 -2.873 -4.968 -6.966 -4.968 -11.23 v -0.842 c 0 -6.331 3.989 -12.057 9.927 -14.246 C 35.071 24.729 35.337 24.154 35.146 23.635 z" style="stroke: none; stroke-width: 1; stroke-dasharray: none; stroke-linecap: butt; stroke-linejoin: miter; stroke-miterlimit: 10; fill: rgb(255,255,255); fill-rule: nonzero; opacity: 1;" transform=" matrix(1 0 0 1 0 0) " stroke-linecap="round" />
	<path d="M 66.786 34.535 c -0.553 0 -1 -0.448 -1 -1 v -1.142 c 0 -0.552 0.447 -1 1 -1 s 1 0.448 1 1 v 1.142 C 67.786 34.087 67.339 34.535 66.786 34.535 z" style="stroke: none; stroke-width: 1; stroke-dasharray: none; stroke-linecap: butt; stroke-linejoin: miter; stroke-miterlimit: 10; fill: rgb(255,255,255); fill-rule: nonzero; opacity: 1;" transform=" matrix(1 0 0 1 0 0) " stroke-linecap="round" />
	<path d="M 48.773 23.963 l -1.044 -0.38 c -0.294 -0.086 -0.523 -0.299 -0.63 -0.583 c -0.187 -0.498 0.066 -1.054 0.563 -1.24 c 0.501 -0.19 1.055 0.067 1.24 0.563 c 0.194 0.518 0.771 0.779 1.288 0.585 c 0.517 -0.194 0.778 -0.77 0.585 -1.287 c -0.326 -0.868 -1.021 -1.481 -1.838 -1.755 v -0.263 c 0 -0.552 -0.447 -1 -1 -1 c -0.553 0 -1 0.448 -1 1 v 0.294 c -1.513 0.583 -2.282 2.282 -1.711 3.805 c 0.33 0.879 1.037 1.535 1.877 1.779 l 1.044 0.38 c 0.293 0.086 0.522 0.298 0.629 0.583 c 0.091 0.241 0.082 0.503 -0.024 0.737 c -0.106 0.234 -0.298 0.412 -0.539 0.502 c -0.493 0.188 -1.053 -0.066 -1.239 -0.563 c -0.193 -0.517 -0.77 -0.778 -1.288 -0.585 c -0.517 0.194 -0.779 0.77 -0.585 1.287 c 0.325 0.868 1.019 1.49 1.836 1.764 v 0.253 c 0 0.552 0.447 1 1 1 c 0.553 0 1 -0.448 1 -1 v -0.295 c 0.73 -0.281 1.311 -0.824 1.636 -1.538 c 0.327 -0.72 0.354 -1.525 0.076 -2.265 C 50.321 24.864 49.614 24.207 48.773 23.963 z" style="stroke: none; stroke-width: 1; stroke-dasharray: none; stroke-linecap: butt; stroke-linejoin: miter; stroke-miterlimit: 10; fill: rgb(255,255,255); fill-rule: nonzero; opacity: 1;" transform=" matrix(1 0 0 1 0 0) " stroke-linecap="round" />
	<path d="M 47.938 9.921 c -0.553 0 -1 -0.448 -1 -1 V 3.899 c 0 -0.552 0.447 -1 1 -1 c 0.553 0 1 0.448 1 1 v 5.021 C 48.938 9.473 48.491 9.921 47.938 9.921 z" style="stroke: none; stroke-width: 1; stroke-dasharray: none; stroke-linecap: butt; stroke-linejoin: miter; stroke-miterlimit: 10; fill: rgb(255,255,255); fill-rule: nonzero; opacity: 1;" transform=" matrix(1 0 0 1 0 0) " stroke-linecap="round" />
	<path d="M 40.413 11.802 c -0.552 0 -1 -0.448 -1 -1 V 6.91 c 0 -0.552 0.448 -1 1 -1 c 0.552 0 1 0.448 1 1 v 3.893 C 41.413 11.354 40.965 11.802 40.413 11.802 z" style="stroke: none; stroke-width: 1; stroke-dasharray: none; stroke-linecap: butt; stroke-linejoin: miter; stroke-miterlimit: 10; fill: rgb(255,255,255); fill-rule: nonzero; opacity: 1;" transform=" matrix(1 0 0 1 0 0) " stroke-linecap="round" />
	<path d="M 55.465 11.802 c -0.553 0 -1 -0.448 -1 -1 V 6.91 c 0 -0.552 0.447 -1 1 -1 s 1 0.448 1 1 v 3.893 C 56.465 11.354 56.017 11.802 55.465 11.802 z" style="stroke: none; stroke-width: 1; stroke-dasharray: none; stroke-linecap: butt; stroke-linejoin: miter; stroke-miterlimit: 10; fill: rgb(255,255,255); fill-rule: nonzero; opacity: 1;" transform=" matrix(1 0 0 1 0 0) " stroke-linecap="round" />
	<path d="M 39.763 30.357 c -0.349 0 -0.688 -0.183 -0.872 -0.508 c -0.874 -1.55 -1.336 -3.315 -1.336 -5.105 c 0 -5.738 4.668 -10.406 10.405 -10.406 c 5.738 0 10.406 4.668 10.406 10.406 c 0 1.693 -0.416 3.374 -1.203 4.86 c -0.259 0.488 -0.863 0.673 -1.352 0.416 c -0.488 -0.259 -0.675 -0.864 -0.416 -1.352 c 0.635 -1.199 0.971 -2.556 0.971 -3.924 c 0 -4.635 -3.771 -8.406 -8.406 -8.406 s -8.405 3.771 -8.405 8.406 c 0 1.446 0.373 2.872 1.079 4.122 c 0.271 0.481 0.102 1.091 -0.379 1.363 C 40.098 30.316 39.93 30.357 39.763 30.357 z" style="stroke: none; stroke-width: 1; stroke-dasharray: none; stroke-linecap: butt; stroke-linejoin: miter; stroke-miterlimit: 10; fill: rgb(255,255,255); fill-rule: nonzero; opacity: 1;" transform=" matrix(1 0 0 1 0 0) " stroke-linecap="round" />
	<path d="M 58.041 34.535 H 38.85 c -0.552 0 -1 -0.448 -1 -1 c 0 -0.552 0.448 -1 1 -1 h 19.191 c 0.553 0 1 0.448 1 1 C 59.041 34.087 58.594 34.535 58.041 34.535 z" style="stroke: none; stroke-width: 1; stroke-dasharray: none; stroke-linecap: butt; stroke-linejoin: miter; stroke-miterlimit: 10; fill: rgb(255,255,255); fill-rule: nonzero; opacity: 1;" transform=" matrix(1 0 0 1 0 0) " stroke-linecap="round" />
</g>
</svg>