<svg xmlns="http://www.w3.org/2000/svg" xmlns:xlink="http://www.w3.org/1999/xlink" version="1.1" width="256" height="256" viewBox="0 0 256 256" xml:space="preserve">

<defs>
</defs>
<g style="stroke: none; stroke-width: 0; stroke-dasharray: none; stroke-linecap: butt; stroke-linejoin: miter; stroke-miterlimit: 10; fill: none; fill-rule: nonzero; opacity: 1;" transform="translate(1.4065934065934016 1.4065934065934016) scale(2.81 2.81)" >
	<path d="M 66.147 41.276 c -1.413 0 -2.68 -0.813 -3.329 -2.068 c -0.129 -0.25 -0.265 -0.499 -0.407 -0.745 c -0.142 -0.246 -0.29 -0.488 -0.442 -0.725 c -0.762 -1.19 -0.833 -2.694 -0.126 -3.917 v 0 c 1.026 -1.777 0.417 -4.05 -1.36 -5.076 l -4.922 -2.842 c -1.777 -1.026 -4.05 -0.417 -5.076 1.36 l -0.001 0.002 c -0.696 1.206 -2.007 1.916 -3.398 1.848 c -0.604 -0.029 -1.211 -0.03 -1.818 0 c -1.388 0.067 -2.696 -0.645 -3.391 -1.849 l -0.001 -0.001 c -1.026 -1.777 -3.299 -2.386 -5.076 -1.36 l -4.922 2.842 c -1.777 1.026 -2.386 3.299 -1.36 5.076 l 0.001 0.001 c 0.695 1.203 0.658 2.693 -0.094 3.861 c -0.329 0.511 -0.632 1.037 -0.909 1.575 c -0.637 1.238 -1.908 2.018 -3.3 2.018 h -0.002 c -2.052 0 -3.716 1.664 -3.716 3.716 v 5.684 c 0 2.052 1.664 3.716 3.716 3.716 v 0 c 1.413 0 2.68 0.813 3.329 2.068 c 0.129 0.25 0.265 0.499 0.407 0.745 c 0.142 0.246 0.29 0.488 0.442 0.725 c 0.762 1.19 0.833 2.694 0.126 3.917 c -1.026 1.777 -0.417 4.05 1.36 5.076 l 4.922 2.842 c 1.777 1.026 4.05 0.417 5.076 -1.36 l 0.001 -0.002 c 0.696 -1.206 2.007 -1.916 3.398 -1.849 c 0.604 0.029 1.211 0.03 1.818 0 c 1.388 -0.067 2.696 0.645 3.391 1.849 l 0.001 0.001 c 1.026 1.777 3.299 2.386 5.076 1.36 l 4.922 -2.842 c 1.777 -1.026 2.386 -3.299 1.36 -5.076 l -0.001 -0.001 c -0.695 -1.203 -0.658 -2.693 0.094 -3.861 c 0.329 -0.511 0.632 -1.037 0.909 -1.575 c 0.637 -1.238 1.908 -2.018 3.3 -2.018 l 0.002 0 c 2.052 0 3.716 -1.664 3.716 -3.716 v -5.684 C 69.863 42.939 68.199 41.276 66.147 41.276 z M 50.687 55.642 c -4.313 2.49 -9.827 1.012 -12.317 -3.3 c -2.49 -4.313 -1.012 -9.827 3.3 -12.317 c 4.313 -2.49 9.827 -1.012 12.317 3.3 C 56.477 47.638 55 53.152 50.687 55.642 z" style="stroke: none; stroke-width: 1; stroke-dasharray: none; stroke-linecap: butt; stroke-linejoin: miter; stroke-miterlimit: 10; fill: rgb(255,255,255); fill-rule: nonzero; opacity: 1;" transform=" matrix(1 0 0 1 0 0) " stroke-linecap="round" />
	<path d="M 54.216 6.016 l 0.217 -0.186 c 1.389 -1.194 1.546 -3.288 0.352 -4.676 s -3.288 -1.546 -4.676 -0.351 l -6.093 5.241 c -0.031 0.027 -0.054 0.06 -0.084 0.088 C 43.85 6.209 43.775 6.291 43.7 6.376 c -0.068 0.077 -0.135 0.154 -0.195 0.236 c -0.066 0.091 -0.123 0.186 -0.18 0.284 c -0.051 0.088 -0.102 0.174 -0.145 0.266 c -0.048 0.102 -0.085 0.208 -0.122 0.315 c -0.034 0.098 -0.068 0.196 -0.092 0.297 c -0.026 0.106 -0.041 0.214 -0.057 0.323 c -0.01 0.071 -0.032 0.14 -0.037 0.212 c -0.003 0.042 0.005 0.084 0.003 0.126 c -0.002 0.041 -0.012 0.08 -0.012 0.122 c 0 0.068 0.016 0.131 0.02 0.197 c 0.007 0.113 0.016 0.225 0.034 0.337 c 0.018 0.111 0.044 0.218 0.073 0.325 c 0.027 0.1 0.055 0.198 0.091 0.294 c 0.041 0.109 0.088 0.212 0.139 0.315 c 0.044 0.089 0.09 0.176 0.142 0.262 c 0.061 0.099 0.128 0.192 0.199 0.284 c 0.037 0.048 0.064 0.102 0.104 0.149 l 5.242 6.092 c 0.656 0.762 1.583 1.153 2.516 1.153 c 0.765 0 1.535 -0.264 2.161 -0.803 c 1.296 -1.116 1.503 -3.009 0.554 -4.385 c 15.892 3.629 27.79 17.868 27.79 34.844 c 0 2.092 -0.182 4.19 -0.542 6.237 c -0.317 1.803 0.888 3.522 2.692 3.839 c 0.194 0.034 0.387 0.051 0.577 0.051 c 1.58 0 2.979 -1.133 3.262 -2.743 c 0.426 -2.425 0.642 -4.909 0.642 -7.385 C 88.559 27.001 73.753 9.783 54.216 6.016 z" style="stroke: none; stroke-width: 1; stroke-dasharray: none; stroke-linecap: butt; stroke-linejoin: miter; stroke-miterlimit: 10; fill: rgb(255,255,255); fill-rule: nonzero; opacity: 1;" transform=" matrix(1 0 0 1 0 0) " stroke-linecap="round" />
	<path d="M 35.93 9.769 c -0.626 -1.721 -2.53 -2.609 -4.25 -1.981 C 15.004 13.859 3.8 29.867 3.8 47.621 c 0 4.735 0.798 9.418 2.328 13.85 l -0.274 -0.096 c -1.727 -0.605 -3.62 0.305 -4.225 2.034 c -0.605 1.728 0.305 3.62 2.034 4.225 l 7.37 2.58 c 0.418 0.182 0.87 0.282 1.328 0.282 c 0.564 0 1.136 -0.144 1.66 -0.448 c 0.811 -0.471 1.344 -1.233 1.552 -2.077 l 2.556 -7.301 c 0.605 -1.728 -0.305 -3.62 -2.034 -4.225 c -1.606 -0.563 -3.343 0.195 -4.066 1.694 c -1.042 -3.391 -1.597 -6.934 -1.597 -10.518 c 0 -14.977 9.451 -28.481 23.518 -33.602 C 35.67 13.393 36.557 11.49 35.93 9.769 z" style="stroke: none; stroke-width: 1; stroke-dasharray: none; stroke-linecap: butt; stroke-linejoin: miter; stroke-miterlimit: 10; fill: rgb(255,255,255); fill-rule: nonzero; opacity: 1;" transform=" matrix(1 0 0 1 0 0) " stroke-linecap="round" />
	<path d="M 84.798 74.444 l -1.493 -7.896 c -0.316 -1.667 -1.83 -2.785 -3.481 -2.676 c -0.038 0.002 -0.075 0.006 -0.113 0.01 c -0.094 0.009 -0.186 0.006 -0.281 0.024 l -7.897 1.493 c -1.799 0.34 -2.982 2.075 -2.642 3.875 c 0.314 1.655 1.807 2.77 3.444 2.679 c -6.694 7.168 -16.155 11.416 -26.156 11.416 c -8.388 0 -16.542 -2.963 -22.958 -8.345 c -1.404 -1.177 -3.494 -0.993 -4.671 0.41 c -1.177 1.403 -0.993 3.494 0.41 4.671 C 26.568 86.485 36.234 90 46.179 90 c 12.376 0 24.063 -5.477 32.038 -14.662 l 0.064 0.339 c 0.302 1.591 1.692 2.701 3.255 2.701 c 0.204 0 0.412 -0.019 0.62 -0.058 C 83.955 77.978 85.137 76.244 84.798 74.444 z" style="stroke: none; stroke-width: 1; stroke-dasharray: none; stroke-linecap: butt; stroke-linejoin: miter; stroke-miterlimit: 10; fill: rgb(255,255,255); fill-rule: nonzero; opacity: 1;" transform=" matrix(1 0 0 1 0 0) " stroke-linecap="round" />
</g>
</svg>